name processed_emg_signals
nRows=57
nColumns=7
 
endheader
time	LGLTMED	LRF	LADDLONG	LST	LTA	LGM
0.0	0.1137283655226861	0.0099792340196389	0.0036403797322982	0.0030089701189669	0.0028915459704916	0.0183996861925614
0.001	0.103396202285464	0.0104471355913327	0.004255033997197	0.002444170905469	0.001329162016056	0.0197653871307068
0.002	0.0930887602212725	0.010916664549292	0.0048684788291996	0.0018818684136187	0.0002276377380231	0.0211200285889306
0.003	0.0828116427452582	0.0113874797027008	0.0054803367124178	0.0013223837134971	0.0017779586545486	0.0224624254871245
0.004	0.0725704133447977	0.011859236504883	0.006090231925596	0.0007660334474423	0.0033209178381767	0.0237913997429723
0.005	0.0623705889258093	0.0123315875679916	0.0066977910896831	0.000213129349889	0.0048556455586043	0.0251057822747457
0.006	0.0522176333065756	0.0128041831840833	0.0073026437113594	0.0003360222229948	0.0063812866492356	0.0264044150227585
0.007	0.042116950873391	0.0132766718509334	0.0079044227210995	0.0008811207526625	0.0078970018774509	0.0276861529861503
0.008	0.0320738804112447	0.0137487008009981	0.0085027650043317	0.001421872005356	0.0094019692827635	0.0289498662718572
0.009000000000000001	0.0220936891216413	0.0142199165320052	0.0090973119242704	0.0019579884660405	0.0108953854792652	0.0301944421526898
0.01	0.012181566838452	0.0146899653377682	0.0096877098350012	0.0024891897581248	0.0123764669188528	0.0314187871314783
0.011	0.0023426204515118	0.015158493837934	0.0102736105833907	0.0030152030481016	0.0138444511118407	0.0326218290082691
0.012	0.00741813145336	0.0156251495054569	0.0108546719984871	0.0035357634342917	0.0152985978016474	0.0338025189476166
0.013000000000000001	0.0170957637301279	0.0160895811907522	0.0114305583671628	0.0040506143189405	0.0167381900904273	0.0349598335430221
0.014	0.0266854495770434	0.0165514396415138	0.0120009408948557	0.0045595077629832	0.0181625355126893	0.0360927768756862
0.015	0.0361824652037952	0.0170103780173303	0.0125654981503601	0.005062204822809	0.0195709670542639	0.0372003825647178
0.016	0.0455821942563523	0.0174660523982456	0.0131239164937038	0.0055584758683946	0.0209628441142557	0.0382817158059794
0.017	0.0548801319958049	0.0179181222864554	0.0136758904861294	0.0060481008822364	0.0223375534079688	0.0393358753967176
0.018000000000000002	0.064071889228962	0.0183662511003102	0.0142211232813146	0.0065308697385652	0.0236945098091529	0.0403619957432123
0.019	0.0731531959898551	0.018810106659757	0.0147593269970106	0.0070065824623742	0.025033157130275	0.0413592488487132
0.02	0.0821199049726172	0.0192493616623051	0.015290223066365	0.0074750494678782	0.0263529688399594	0.0423268462790829
0.021	0.0909679947173823	0.0196836941485723	0.0158135425683503	0.0079360917761278	0.0276534487171001	0.0432640411036887
0.022	0.0996935725518884	0.0201127879564557	0.0163290265367234	0.0083895412115751	0.0289341314414968	0.0441701298091816
0.023	0.1082928772924127	0.0205363331629365	0.0168364262470207	0.0088352405775119	0.0301945831210991	0.0450444541839479
0.024	0.1167622817084042	0.0209540265125481	0.0173355034810924	0.0092730438103389	0.0314344017561016	0.0458864031710956
0.025	0.1250982947557335	0.0213655718315498	0.017826030768735	0.0097028161127491	0.0326532176401972	0.046695414688018
0.026000000000000002	0.1332975635837517	0.0217706804268463	0.0183077916060061	0.0101244340659297	0.0338506936993464	0.0474709774106573
0.027	0.1413568753214202	0.0221690714688167	0.0187805806499062	0.010537785720966	0.0350265257685079	0.0482126325207215
0.028	0.1492731586476174	0.0225604723571977	0.0192442038891311	0.010942770669713	0.0361804428068458	0.0489199754140574
0.029	0.15704348515045	0.022944619069365	0.0196984787907228	0.0113393000953696	0.0373122070520555	0.0495926573683938
0.03	0.1646650704800575	0.0233212564904582	0.0201432344225247	0.0117272968031125	0.0384216141144274	0.0502303871685834
0.031	0.1721352752991814	0.0236901387249701	0.0205783115514474	0.0121066952310535	0.0395084930113178	0.0508329326873755
0.032	0.179451606035597	0.024051029389553	0.0210035627176357	0.0124774414418923	0.0405727061426897	0.0514001224197582
0.033	0.1866117154405719	0.0244037018868904	0.0214188522847264	0.0128394930955471	0.0416141492084826	0.0519318469688682
0.034	0.1936134029575879	0.0247479396604566	0.0218240564664251	0.013192819403115	0.0426327510687449	0.0524280604814475
0.035	0.2004546149058224	0.0250835364299907	0.0222190633297993	0.0135374010624654	0.0436284735475762	0.0528887820308116
0.036000000000000004	0.2071334444830547	0.0254102964074254	0.0226037727756421	0.0138732301757955	0.0446013111821552	0.0533140969451738
0.037	0.2136481315928781	0.025728034493061	0.0229780964964168	0.0142003101494778	0.0455512909182053	0.0537041580790669
0.038	0.2199970625011258	0.0260365764517505	0.0233419579122146	0.0145186555765029	0.0464784717532934	0.054059187025539
0.039	0.2261787693267052	0.0263357590689338	0.0236952920852627	0.0148282921018739	0.0473829443293074	0.054379475266668
0.04	0.2321919293723451	0.0266254302863537	0.0240380456135822	0.0151292562712979	0.0482648304753953	0.0546653852599054
0.041	0.2380353643012303	0.0269054493173523	0.0243701765044674	0.0154215953635689	0.0491242827025612	0.0549173514576413
0.042	0.2437080391657829	0.0271756867416736	0.0246916540286346	0.0157053672070437	0.0499614836511127	0.0551358812573572
0.043000000000000003	0.2492090612948435	0.0274360245797605	0.0250024585559034	0.0159806399806353	0.050776645492124	0.0553215558797293
0.044	0.2545376790452653	0.0276863563466389	0.0253025813734071	0.0162474919997657	0.0515700092840882	0.0554750311720751
0.045	0.2596932804234767	0.0279265870855941	0.0255920244873123	0.0165060114877382	0.0523418442860675	0.0555970383346747
0.046	0.2646753915820554	0.0281566333819367	0.0258708004090884	0.0167562963330603	0.053092447228763	0.0556883845676105
0.047	0.2694836751957982	0.0283764233572612	0.0261389319272702	0.0169984538332202	0.0538221415451286	0.0557499536358996
0.048	0.27411792872133	0.0285858966446479	0.0263964518656882	0.0172326004255564	0.0545312765623015	0.0557827063508436
0.049	0.2785780825439884	0.0287850043452775	0.0266434028290921	0.0174588614058102	0.0552202266567452	0.0557876809655299
0.05	0.2828641980156914	0.028973708967003	0.0268798369371123	0.0176773706350087	0.0558893903746301	0.0557659934824161
0.051000000000000004	0.2869764653878027	0.029151984345392	0.0271058155475165	0.0178882702353127	0.0565391895196034	0.0557188378709816
0.052000000000000005	0.2909152016433846	0.0293198155478295	0.0273214089697547	0.0180917102754584	0.0571700682102979	0.0556474861933339
0.053	0.2946808482335593	0.0294771987612885	0.0275266961697241	0.0182878484463996	0.057782491910124	0.0555532886356987
0.054	0.2982739687229372	0.0296241411643188	0.0277217644666761	0.018476849727747	0.0583769464319998	0.0554376734436306
0.055	0.3016952463491955	0.0297606607838391	0.0279067092231338	0.0186588860456071	0.0589539369208567	0.0553021467588381
0.056	0.3049454815021216	0.0298867863372491	0.0280816335285664	0.0188341359224248	0.0595139868167828	0.0551482923555443
